# AST/ASF file generated using VICON BodyLanguage
# -----------------------------------------------
:version 1.10
:name VICON
:units
  mass 1.0
  length 0.45
  angle deg
:documentation
   .ast/.asf automatically generated from VICON data using
   VICON BodyBuilder and BodyLanguage model FoxedUp or BRILLIANT.MOD
:root
   order TX TY TZ RX RY RZ
   axis XYZ
   position 0 0 0  
   orientation 0 0 0 
:bonedata
  begin
     id 1 
     name lhipjoint
     direction 0.535335 -0.74333 0.401095 
     length 2.04549 
     axis 0 0 0  XYZ
  end
  begin
     id 2 
     name lfemur
     direction 0.34202 -0.939693 0  
     length 6.95643  
     axis 0 0 20  XYZ
    dof rx ry rz
    limits (-160.0 20.0)
           (-70.0 70.0)
           (-60.0 70.0)
  end
  begin
     id 3 
     name ltibia
     direction 0.34192 -0.939729 0   
     length 5.55969   
     axis 0 0 20   XYZ
    dof rx
    limits (-10.0 170.0)
  end
  begin
     id 4 
     name lfoot
     direction 0.216943 -0.596046 0.773088   
     length 2.27918   
     axis -90 7.62852e-016 20   XYZ
    dof rx rz
    limits (-45.0 90.0)
           (-70.0 20.0)
  end
  begin
     id 5 
     name ltoes
     direction 1.53519e-011 -4.21748e-011 1   
     length 1.05562   
     axis -90 7.62852e-016 20   XYZ
    dof rx
    limits (-90.0 20.0)
  end
  begin
     id 6 
     name rhipjoint
     direction -0.576368 -0.719173 0.38806   
     length 2.1142  
     axis 0 0 0  XYZ 
  end
  begin
     id 7 
     name rfemur
     direction -0.34202 -0.939693 0   
     length 7.07928   
     axis 0 0 -20   XYZ
    dof rx ry rz
    limits (-160.0 20.0)
           (-70.0 70.0)
           (-70.0 60.0)
  end
  begin
     id 8 
     name rtibia
     direction -0.34202 -0.939693 0   
     length 5.79974   
     axis 0 0 -20   XYZ
    dof rx
    limits (-10.0 170.0)
 end
 begin
     id 9 
     name rfoot
     direction -0.189288 -0.520065 0.832888   
     length 2.42173  
     axis -90 -7.62852e-016 -20   XYZ
    dof rx rz
    limits (-45.0 90.0)
           (-20.0 70.0)
  end
  begin
     id 10 
     name rtoes
     direction -1.53574e-011 -4.21658e-011 1   
     length 1.14469   
     axis -90 -7.62852e-016 -20   XYZ
    dof rx
    limits (-90.0 20.0)
  end
  begin
     id 11 
     name lowerback
     direction -0.00135702 0.993803 0.111144   
     length 1.91308   
     axis 0 0 0   XYZ
    dof rx ry rz
    limits (-20.0 45.0)
           (-30.0 30.0)
           (-30.0 30.0)
  end
  begin
     id 12 
     name upperback
     direction -0.0056745 0.999813 0.0184631   
     length 1.9212   
     axis 0 0 0   XYZ
    dof rx ry rz
    limits (-20.0 45.0)
           (-30.0 30.0)
           (-30.0 30.0)
  end
  begin
     id 13 
     name thorax
     direction -0.00733434 0.999426 -0.0330788   
     length 1.94196   
     axis 0 0 0   XYZ
    dof rx ry rz
    limits (-20.0 45.0)
           (-30.0 30.0)
           (-30.0 30.0)
  end
  begin
     id 14 
     name lowerneck
     direction 0.0563074 0.996944 -0.0541571   
     length 2.34257   
     axis 0 0 0   XYZ
    dof rx ry rz
    limits (-20.0 45.0)
           (-30.0 30.0)
           (-30.0 30.0)
  end
  begin
     id 15 
     name upperneck
     direction -0.0544519 0.976166 -0.210085   
     length 2.32506   
     axis 0 0 0   XYZ
    dof rx ry rz
    limits (-20.0 45.0)
           (-30.0 30.0)
           (-30.0 30.0)
  end
  begin
     id 16
     name head
     direction -0.0226035 0.997615 -0.0652205  
     length 2.3648  
     axis 0 0 0   XYZ
    dof rx ry rz
    limits (-20.0 45.0)
           (-30.0 30.0)
           (-30.0 30.0)
  end
  begin
     id 17 
     name lclavicle
     direction 0.92109 0.381297 -0.0787716  
     length 4.0487  
     axis 0 0 0   XYZ
    dof ry rz
    limits (-20.0 10.0)
           (0.0 20.0)
  end
  begin
     id 18 
     name lhumerus
     direction 1 -4.48986e-011 3.56724e-027   
     length 4.94991   
     axis 180 -30 -90   XYZ
    dof rx ry rz
    limits (-60.0 90.0)
           (-90.0 90.0)
           (-90.0 90.0)
  end
  begin
     id 19
     name lradius
     direction 1 -4.48981e-011 8.62147e-027   
     length 2.7606   
     axis 180 -30 -90   XYZ
    dof rx
    limits (-10.0 170.0)
  end
  begin
     id 20
     name lwrist
     direction 1 -4.48989e-011 1.59799e-026   
     length 1.3803   
     axis -1.17785e-014 90 90   XYZ
    dof ry
    limits (-180.0 0.0)
 end
  begin
     id 21 
     name lhand
     direction 1 -4.48896e-011 3.19599e-026   
     length 0.843936   
     axis -2.03931e-014 90 90   XYZ
    dof rx rz
    limits (-90.0 90.0)
           (-45.0 45.0)
  end
  begin
     id 22 
     name lfingers
     direction 1 -4.48887e-011 6.39197e-026   
     length 0.680403   
     axis -4.07862e-014 90 90   XYZ
    dof rx
    limits (0.0 90.0)
  end
  begin
     id 23
     name lthumb
     direction 0.707107 -6.348e-011 0.707107   
     length 0.976926   
     axis -90 45 2.85299e-015   XYZ
    dof rx rz
    limits (-45.0 45.0)
           (-45.0 45.0)
  end
  begin
     id 24 
     name rclavicle
     direction -0.951104 0.307692 -0.026953   
     length 4.21801  
     axis 0 0 0   XYZ 
    dof ry rz
    limits (-10.0 20.0)
           (-20.0 0.0)
  end
  begin
     id 25 
     name rhumerus
     direction -1 -4.4896e-011 -1.8171e-018  
     length 4.32982   
     axis 180 30 90   XYZ
    dof rx ry rz
    limits (-90.0 60.0)
           (-90.0 90.0)
           (-90.0 90.0)
  end
  begin
     id 26 
     name rradius
     direction -1 -4.48959e-011 8.25165e-027   
     length 3.20057   
     axis 180 30 90   XYZ
    dof rx
    limits (-10.0 170.0)
  end
  begin
     id 27 
     name rwrist
     direction -1 -4.48997e-011 1.59799e-026   
     length 1.60029   
     axis -1.17785e-014 -90 -90   XYZ
    dof ry
    limits (-180.0 0.0)
  end
  begin
     id 28
     name rhand
     direction -1 -4.49023e-011 3.19599e-026   
     length 0.960433   
     axis -2.03931e-014 -90 -90   XYZ
    dof rx rz
    limits (-90.0 90.0)
           (-45.0 45.0)
  end
  begin
     id 29
     name rfingers
     direction -1 -4.48802e-011 6.39197e-026   
     length 0.774326   
     axis -4.07862e-014 -90 -90   XYZ
    dof rx
    limits (0.0 90.0)
  end
  begin
     id 30
     name rthumb
     direction -0.707107 -6.34876e-011 0.707107   
     length 1.11178   
     axis -90 -45 -2.85299e-015   XYZ
    dof rx rz
    limits (-45.0 45.0)
           (-45.0 45.0)
  end
:hierarchy
  begin
    root lhipjoint rhipjoint lowerback
    lhipjoint lfemur
    lfemur ltibia
    ltibia lfoot
    lfoot ltoes
    rhipjoint rfemur
    rfemur rtibia
    rtibia rfoot
    rfoot rtoes
    lowerback upperback
    upperback thorax
    thorax lowerneck lclavicle rclavicle
    lowerneck upperneck
    upperneck head
    lclavicle lhumerus
    lhumerus lradius
    lradius lwrist
    lwrist lhand lthumb
    lhand lfingers
    rclavicle rhumerus
    rhumerus rradius
    rradius rwrist
    rwrist rhand rthumb
    rhand rfingers
end

#!OML:ASF C:\KaitlinTest1\Natural Motions\Nikki\Session 2\Nikki.ASF
:FULLY-SPECIFIED
:DEGREES
37
root -11.3033 16.4159 4.97175 -145.063 85.3887 -154.658
lowerback -12.6247 -2.91779 1.2771
upperback -4.35384 -3.83463 0.139551
thorax 2.42384 -1.8325 -1.1196
lowerneck -5.38669 -11.1989 -10.5263
upperneck 5.45244 39.0555 4.83991
head 163.353 65.4789 -40.3331
rclavicle -2.04748e-014 -2.38542e-015
rhumerus -36.3806 -15.7891 -84.3319
rradius 15.7395
rwrist 28.1194
rhand -36.9341 2.94245
rfingers 7.12502
rthumb -10.0111 -26.7995
lclavicle -2.04748e-014 -2.38542e-015
lhumerus -42.5495 21.4843 78.2349
lradius 23.7902
lwrist -33.4107
lhand -35.7572 5.57351
lfingers 7.12502
lthumb -8.8755 35.3669
rfemur -14.1717 -14.6539 21.8348
rtibia 25.4338
rfoot -17.9776 10.6255
rtoes -1.03368e-014
lfemur -18.1354 14.4865 -17.6687
ltibia 28.1001
lfoot -11.9192 -16.1667
ltoes -2.8625e-014
38
root -11.3027 16.413 4.97123 -144.933 85.3645 -154.554
lowerback -12.6567 -2.90717 1.31273
upperback -4.34612 -3.82532 0.139109
thorax 2.447 -1.82768 -1.14064
lowerneck -5.39535 -11.2241 -10.5128
upperneck 5.42923 38.9688 4.8174
head 163.235 65.5529 -40.4119
rclavicle 4.84538e-015 -3.37934e-015
rhumerus -36.3304 -15.675 -84.4567
rradius 15.7772
rwrist 27.9917
rhand -36.9979 2.82714
rfingers 7.12502
rthumb -10.0726 -26.9118
lclavicle 4.84538e-015 -3.37934e-015
lhumerus -42.4922 21.4388 78.2494
lradius 23.731
lwrist -33.2904
lhand -35.9041 5.50656
lfingers 7.12502
lthumb -9.01726 35.2938
rfemur -14.1968 -14.6212 21.8546
rtibia 25.4276
rfoot -17.9401 10.5938
rtoes -5.56597e-014
lfemur -18.1702 14.565 -17.6748
ltibia 28.1115
lfoot -11.9481 -16.2334
ltoes -3.18055e-015
39
root -11.3004 16.4154 4.96986 -145.173 85.3671 -154.804
lowerback -12.6821 -2.90334 1.30396
upperback -4.33221 -3.81966 0.128398
thorax 2.47528 -1.82464 -1.14791
lowerneck -5.39352 -11.2119 -10.5305
upperneck 5.42509 38.9708 4.82246
head 163.313 65.5744 -40.3647
rclavicle 1.35919e-014 7.95139e-016
rhumerus -36.291 -15.2656 -84.7658
rradius 15.9266
rwrist 27.3355
rhand -37.0356 2.63017
rfingers 7.12502
rthumb -10.109 -27.107
lclavicle 1.35919e-014 7.95139e-016
lhumerus -42.4817 21.3624 78.2568
lradius 23.7474
lwrist -33.2481
lhand -35.9522 5.5853
lfingers 7.12502
lthumb -9.06371 35.3706
rfemur -14.1915 -14.668 21.8287
rtibia 25.426
rfoot -17.9884 10.6288
rtoes 3.97569e-015
lfemur -18.1733 14.5157 -17.6937
ltibia 28.1063
lfoot -11.8942 -16.2316
ltoes 4.77083e-015
40
root -11.3004 16.4145 4.96884 -145.315 85.3505 -154.939
lowerback -12.6236 -2.89434 1.30432
upperback -4.34731 -3.80693 0.13171
thorax 2.4284 -1.81891 -1.13918
lowerneck -5.40193 -11.2075 -10.5464
upperneck 5.43929 39.0363 4.84032
head 163.386 65.5545 -40.3398
rclavicle -9.29318e-015 5.96354e-016
rhumerus -36.3088 -15.2024 -84.807
rradius 15.9657
rwrist 27.3132
rhand -36.9938 2.49019
rfingers 7.12502
rthumb -10.0687 -27.2489
lclavicle -9.29318e-015 5.96354e-016
lhumerus -42.5003 21.3427 78.255
lradius 23.7344
lwrist -33.1611
lhand -36.0067 5.5281
lfingers 7.12502
lthumb -9.11623 35.3111
rfemur -14.1615 -14.6693 21.8275
rtibia 25.4127
rfoot -17.9703 10.5718
rtoes -7.23576e-014
lfemur -18.1691 14.4923 -17.6956
ltibia 28.1165
lfoot -11.9302 -16.2096
ltoes 7.95139e-015
41
root -11.2992 16.4165 4.96826 -145.4 85.3207 -155.013
lowerback -12.5792 -2.89251 1.30313
upperback -4.36088 -3.80346 0.131519
thorax 2.39033 -1.81762 -1.13534
lowerneck -5.37197 -11.2075 -10.547
upperneck 5.45042 39.0406 4.85348
head 163.405 65.5875 -40.3384
rclavicle 8.77137e-015 -6.75868e-015
rhumerus -36.3431 -15.2084 -84.8125
rradius 15.988
rwrist 27.3921
rhand -36.9917 2.71751
rfingers 7.12502
rthumb -10.0666 -27.0217
lclavicle 8.77137e-015 -6.75868e-015
lhumerus -42.5773 21.3791 78.1647
lradius 23.7538
lwrist -33.2193
lhand -36.0033 5.47776
lfingers 7.12502
lthumb -9.11294 35.2609
rfemur -14.1354 -14.6688 21.8335
rtibia 25.3852
rfoot -17.988 10.5443
rtoes -6.75868e-014
lfemur -18.1643 14.5119 -17.6889
ltibia 28.1244
lfoot -11.9363 -16.2314
ltoes -9.54166e-015
42
root -11.2978 16.4173 4.96748 -145.143 85.2867 -154.745
lowerback -12.5487 -2.88555 1.33657
upperback -4.36272 -3.79842 0.141076
thorax 2.37047 -1.81556 -1.14168
lowerneck -5.379 -11.2374 -10.5182
upperneck 5.44511 38.9946 4.841
head 163.227 65.6557 -40.4752
rclavicle -4.87022e-015 -4.37326e-015
rhumerus -36.362 -15.3066 -84.7674
rradius 15.9762
rwrist 27.5842
rhand -37.0539 3.01863
rfingers 7.12502
rthumb -10.1267 -26.7177
lclavicle -4.87022e-015 -4.37326e-015
lhumerus -42.621 21.474 78.065
lradius 23.7269
lwrist -33.3429
lhand -35.9501 5.50845
lfingers 7.12502
lthumb -9.06164 35.2938
rfemur -14.1209 -14.6507 21.8581
rtibia 25.3879
rfoot -18.0035 10.5386
rtoes 2.3059e-014
lfemur -18.1489 14.4838 -17.6439
ltibia 28.1249
lfoot -11.9684 -16.2372
ltoes 1.43125e-014
43
root -11.2967 16.4178 4.96717 -145.473 85.2831 -155.126
lowerback -12.5633 -2.89207 1.30624
upperback -4.38742 -3.80182 0.140147
thorax 2.35446 -1.81679 -1.12613
lowerneck -5.36076 -11.2607 -10.501
upperneck 5.43726 38.9175 4.81961
head 163.031 65.7495 -40.6114
rclavicle -2.78299e-015 -7.35503e-015
rhumerus -36.3797 -15.2798 -84.8095
rradius 16.01
rwrist 27.6357
rhand -37.0057 2.97893
rfingers 7.12502
rthumb -10.0802 -26.7596
lclavicle -2.78299e-015 -7.35503e-015
lhumerus -42.6802 21.6228 77.9123
lradius 23.6631
lwrist -33.6085
lhand -35.891 5.51753
lfingers 7.12502
lthumb -9.00458 35.3053
rfemur -14.1627 -14.6124 21.8335
rtibia 25.3923
rfoot -18.0055 10.4983
rtoes -9.85972e-014
lfemur -18.2071 14.4892 -17.6912
ltibia 28.1185
lfoot -11.9444 -16.2635
ltoes -5.24792e-014
44
root -11.2959 16.4149 4.96678 -145.519 85.269 -155.203
lowerback -12.5497 -2.89427 1.30778
upperback -4.41299 -3.80342 0.143158
thorax 2.32048 -1.8176 -1.12247
lowerneck -5.3593 -11.2583 -10.5026
upperneck 5.45619 38.977 4.83409
head 163.048 65.7181 -40.6143
rclavicle -3.71479e-014 -6.16232e-015
rhumerus -36.3852 -15.2198 -84.8468
rradius 16.006
rwrist 27.6586
rhand -36.9003 2.89884
rfingers 7.12502
rthumb -9.97846 -26.8446
lclavicle -3.71479e-014 -6.16232e-015
lhumerus -42.7292 21.645 77.8643
lradius 23.6189
lwrist -33.6166
lhand -35.9464 5.5617
lfingers 7.12502
lthumb -9.05803 35.3472
rfemur -14.2013 -14.6306 21.8444
rtibia 25.3876
rfoot -17.9735 10.5031
rtoes -4.6118e-014
lfemur -18.2283 14.5038 -17.7109
ltibia 28.115
lfoot -11.947 -16.2829
ltoes 3.33958e-014
45
root -11.2959 16.4134 4.96638 -145.703 85.2553 -155.404
lowerback -12.5576 -2.89071 1.30413
upperback -4.40231 -3.79866 0.136067
thorax 2.33577 -1.81521 -1.12791
lowerneck -5.36714 -11.281 -10.485
upperneck 5.42722 38.8698 4.81053
head 162.92 65.8282 -40.7044
rclavicle 3.08116e-015 3.57812e-015
rhumerus -36.3248 -14.969 -85.0649
rradius 16.0677
rwrist 27.2716
rhand -37.0129 2.87111
rfingers 7.12502
rthumb -10.0871 -26.8671
lclavicle 3.08116e-015 3.57812e-015
lhumerus -42.7282 21.7097 77.774
lradius 23.5611
lwrist -33.8204
lhand -35.8198 5.60288
lfingers 7.12502
lthumb -8.93595 35.3936
rfemur -14.2127 -14.6197 21.8367
rtibia 25.3922
rfoot -17.9799 10.473
rtoes 4.45278e-014
lfemur -18.2523 14.5673 -17.7312
ltibia 28.1089
lfoot -11.9189 -16.3751
ltoes -1.90833e-014
